<?xml version="1.0" encoding="utf-8"?>
<?xml-stylesheet type="text/xsl" href="rss1.xsl"?>
<rss version="2.0" xmlns:atom="http://www.w3.org/2005/Atom" xmlns:content="http://purl.org/rss/1.0/modules/content/" xmlns:dc="http://purl.org/dc/elements/1.1/" xmlns:media="http://search.yahoo.com/mrss/">
<channel>
 <title>Getty</title>
 <link>http://www.gettyimg.com/</link>
 <atom:link href="http://www.gettyimg.com/" rel="self" type="application/rss+xml" />

 
                <item>
                <title><![CDATA[【Bugs!】After School - Flashback (Bugs! 1080p)]]></title>
                <link><![CDATA[https://sharemania.us/threads/after-school-flashback-bugs-1080p.229428/]]></link>
                <description><![CDATA[<article>
<blockquote class="messageText SelectQuoteContainer ugc baseHtml">
<img src="https://images2.imgbox.com/94/50/0uoYnqLt_o.jpg" class="bbCodeImage LbImage" alt="[​IMG]" data-url="https://images2.imgbox.com/94/50/0uoYnqLt_o.jpg" style=""> <br>
<br>
<span data-s9e-mediaembed="youtube" style="display:inline-block;width:100%;max-width:640px"><span style="display:block;overflow:hidden;position:relative;padding-bottom:56.25%"><iframe allowfullscreen="" loading="lazy" scrolling="no" style="background:url(https://i.ytimg.com/vi/t0IKUhydr_8/hqdefault.jpg) 50% 50% / cover;border:0;height:100%;left:0;position:absolute;width:100%" src="https://www.youtube.com/embed/t0IKUhydr_8"></iframe></span></span><br>
<br>
<div class="ToggleTriggerAnchor bbCodeSpoilerContainer">
<button type="button" class="button bbCodeSpoilerButton ToggleTrigger Tooltip JsOnly" data-target="> .SpoilerTarget"><span>Spoiler: <span class="SpoilerTitle">Media Info</span></span></button>
<div class="SpoilerTarget bbCodeSpoilerText">Format : MPEG-4<br>
Format profile : Base Media<br>
Codec ID : isom (mp41)<br>
File size : 256 MiB<br>
Duration : 3 min 29 s<br>
Overall bit rate : 10.3 Mb/s<br>
Frame rate : 24.000 FPS<br>
Encoded date : 1970-01-01 00:00:00 UTC<br>
Tagged date : 1970-01-01 00:00:00 UTC<br>
Writing application : PotEncoder<br>
<br>
Video<br>
ID : 1<br>
Format : AVC<br>
Format/Info : Advanced Video Codec<br>
Format profile : Constrained Baseline@L4<br>
Format settings : 2 Ref Frames<br>
Format settings, CABAC : No<br>
Format settings, Reference : 2 frames<br>
Format settings, GOP : M=1, N=120<br>
Codec ID : avc1<br>
Codec ID/Info : Advanced Video Coding<br>
Duration : 3 min 29 s<br>
Bit rate : 9 940 kb/s<br>
Width : 1 920 pixels<br>
Height : 1 080 pixels<br>
Display aspect ratio : 16:9<br>
Frame rate mode : Constant<br>
Frame rate : 24.000 FPS<br>
Color space : YUV<br>
Chroma subsampling : 4:2:0<br>
Bit depth : 8 bits<br>
Scan type : Progressive<br>
Bits/(Pixel*Frame) : 0.200<br>
Stream size : 248 MiB (97%)<br>
Encoded date : 1970-01-01 00:00:00 UTC<br>
Tagged date : 1970-01-01 00:00:00 UTC<br>
Codec configuration box : avcC<br>
<br>
Audio<br>
ID : 2<br>
Format : MPEG Audio<br>
Format version : Version 1<br>
Format profile : Layer 3<br>
Format settings : Joint stereo<br>
Codec ID : mp4a-6B<br>
Duration : 3 min 29 s<br>
Bit rate mode : Constant<br>
Bit rate : 320 kb/s<br>
Channel(s) : 2 channels<br>
Sampling rate : 44.1 kHz<br>
Compression mode : Lossy<br>
Stream size : 7.97 MiB (3%)<br>
Writing library : LAME3.98.2<br>
Encoded date : 1970-01-01 00:00:00 UTC<br>
Tagged date : 1970-01-01 00:00:00 UTC</div>
</div><br>
<div class="bbCodeBlock bbCodeVfcHH HiddenContent">
<div class="attribution type">Hidden Content:</div>
<blockquote>You must reply before you can see the hidden data contained here.</blockquote>
</div>
<div class="messageTextEndMarker">&nbsp;</div>
</blockquote>
</article>]]></description>
                <author><![CDATA[Eric Lyn]]></author>
                </item>

                
                <item>
                <title><![CDATA[【Albums (lossless)】Annalisa - E POI SIAMO FINITI NEL VORTICE |Qobuz 24bit/44.1kHz|]]></title>
                <link><![CDATA[https://sharemania.us/threads/annalisa-e-poi-siamo-finiti-nel-vortice-qobuz-24bit-44-1khz.229427/]]></link>
                <description><![CDATA[<article>
<blockquote class="messageText SelectQuoteContainer ugc baseHtml">
I was wondering if you have After School- Flashback (Master 2160p) Eric Lyn? Can you please send me a downloadable link for the music video?
<div class="messageTextEndMarker">&nbsp;</div>
</blockquote>
</article>]]></description>
                <author><![CDATA[fstambuk]]></author>
                </item>

                
                <item>
                <title><![CDATA[【Requests】[REQ VID] - After School- Flashback (Master 2160p)]]></title>
                <link><![CDATA[https://sharemania.us/threads/after-school-flashback-master-2160p.229425/]]></link>
                <description><![CDATA[<article>
<blockquote class="messageText SelectQuoteContainer ugc baseHtml">
<div class="bbCodeBlock bbCodeQuote" data-author="koalablue">
<aside>
<div class="attribution type">koalablue said:
<a href="goto/post?id=4905685#post-4905685" class="AttributionLink">↑</a>
</div>
<blockquote class="quoteContainer"><div class="quote">I was wondering if you have After School- Flashback (Master 2160p) Eric Lyn? Can you please send me a downloadable link for the music video?</div><div class="quoteExpand">Click to expand...</div></blockquote>
</aside>
</div>It's old music video from 2012. Wonder it will have 4K version? I don't think so. Maybe someone can upscale for you.
<div class="messageTextEndMarker">&nbsp;</div>
</blockquote>
</article>]]></description>
                <author><![CDATA[koalablue]]></author>
                </item>

                </channel></rss>